<?xml version="1.0" encoding="UTF-8"?>
<svg width="128" height="128" viewBox="0 0 128 128" xmlns="http://www.w3.org/2000/svg">
    <rect width="128" height="128" rx="24" fill="#1a1a1a"/>
    <path d="M64 24C41.909 24 24 41.909 24 64s17.909 40 40 40 40-17.909 40-40S86.091 24 64 24zm0 8c17.673 0 32 14.327 32 32S81.673 96 64 96 32 81.673 32 64s14.327-32 32-32z" fill="#00ff9d"/>
    <path d="M64 44c-11.046 0-20 8.954-20 20s8.954 20 20 20 20-8.954 20-20-8.954-20-20-20zm0 8c6.627 0 12 5.373 12 12s-5.373 12-12 12-12-5.373-12-12 5.373-12 12-12z" fill="#00ff9d"/>
    <circle cx="64" cy="64" r="8" fill="#00ff9d"/>
</svg> 